999
dxfrw 0.5.11
0
SECTION
2
HEADER
9
$ACADVER
1
AC1021
9
$HANDSEED
5
20000
9
$DWGCODEPAGE
3
ANSI_1252
9
$INSBASE
10
0
20
0
30
0
9
$EXTMIN
10
-51.4986708393
20
-51.5
30
0
9
$EXTMAX
10
193.995967856
20
158.2
30
0
9
$LIMMIN
10
0
20
0
9
$LIMMAX
10
420
20
297
9
$ORTHOMODE
70
0
9
$LTSCALE
40
1
9
$TEXTSTYLE
7
STANDARD
9
$CLAYER
8
cotes
9
$DIMASZ
40
2.5
9
$DIMLFAC
40
1
9
$DIMSCALE
40
1
9
$DIMEXO
40
0.625
9
$DIMEXE
40
1.25
9
$DIMTXT
40
2.5
9
$DIMTSZ
40
0
9
$DIMAUNIT
70
0
9
$DIMADEC
70
0
9
$DIMLUNIT
70
2
9
$DIMSTYLE
2
STANDARD
9
$DIMGAP
40
0.625
9
$DIMTIH
70
0
9
$LUNITS
70
2
9
$LUPREC
70
4
9
$AUNITS
70
0
9
$AUPREC
70
2
9
$SPLINESEGS
70
8
9
$GRIDMODE
70
1
9
$SNAPSTYLE
70
0
9
$PINSBASE
10
0
20
0
30
0
9
$PLIMMIN
10
0
20
0
9
$PLIMMAX
10
210
20
297
9
$INSUNITS
70
0
9
$PSVPSCALE
40
1
0
ENDSEC
0
SECTION
2
CLASSES
0
ENDSEC
0
SECTION
2
TABLES
0
TABLE
2
VPORT
5
8
330
0
100
AcDbSymbolTable
70
1
0
VPORT
5
31
330
2
100
AcDbSymbolTableRecord
100
AcDbViewportTableRecord
2
*ACTIVE
70
0
10
0
20
0
11
1
21
1
12
126.520430183
22
42.6265121221
13
0
23
0
14
10
24
10
15
10
25
10
16
0
26
0
36
1
17
0
27
0
37
0
40
200.900604958
41
1.69864698647
42
50
43
0
44
0
50
0
51
0
71
0
72
100
73
1
74
3
75
0
76
1
77
0
78
0
281
0
65
1
110
0
120
0
130
0
111
1
121
0
131
0
112
0
122
1
132
0
79
0
146
0
348
10020
60
7
61
5
292
1
282
1
141
0
142
0
63
250
421
3358443
0
ENDTAB
0
TABLE
2
LTYPE
5
5
330
0
100
AcDbSymbolTable
70
4
0
LTYPE
5
14
330
5
100
AcDbSymbolTableRecord
100
AcDbLinetypeTableRecord
2
ByBlock
70
0
3

72
65
73
0
40
0
0
LTYPE
5
15
330
5
100
AcDbSymbolTableRecord
100
AcDbLinetypeTableRecord
2
ByLayer
70
0
3

72
65
73
0
40
0
0
LTYPE
5
16
330
5
100
AcDbSymbolTableRecord
100
AcDbLinetypeTableRecord
2
Continuous
70
0
3
Solid line
72
65
73
0
40
0
0
LTYPE
5
32
330
5
100
AcDbSymbolTableRecord
100
AcDbLinetypeTableRecord
2
DOT
70
0
3
Dot . . . . . . . . . . . . . . . . . . . . . .
72
65
73
2
40
6.35
49
0
74
0
49
-6.35
74
0
0
LTYPE
5
33
330
5
100
AcDbSymbolTableRecord
100
AcDbLinetypeTableRecord
2
DOT2
70
0
3
Dot (.5x) .....................................
72
65
73
2
40
3.175
49
0
74
0
49
-3.175
74
0
0
LTYPE
5
34
330
5
100
AcDbSymbolTableRecord
100
AcDbLinetypeTableRecord
2
DOTX2
70
0
3
Dot (2x) .  .  .  .  .  .  .  .  .  .  .  .  .
72
65
73
2
40
12.7
49
0
74
0
49
-12.7
74
0
0
LTYPE
5
35
330
5
100
AcDbSymbolTableRecord
100
AcDbLinetypeTableRecord
2
DASHED
70
0
3
Dot . . . . . . . . . . . . . . . . . . . . . .
72
65
73
2
40
19.05
49
12.7
74
0
49
-6.35
74
0
0
LTYPE
5
36
330
5
100
AcDbSymbolTableRecord
100
AcDbLinetypeTableRecord
2
DASHED2
70
0
3
Dashed (.5x) _ _ _ _ _ _ _ _ _ _ _ _ _ _ _ _ _
72
65
73
2
40
9.525
49
6.35
74
0
49
-3.175
74
0
0
LTYPE
5
37
330
5
100
AcDbSymbolTableRecord
100
AcDbLinetypeTableRecord
2
DASHEDX2
70
0
3
Dashed (2x) ____  ____  ____  ____  ____  ___
72
65
73
2
40
38.1
49
25.4
74
0
49
-12.7
74
0
0
LTYPE
5
38
330
5
100
AcDbSymbolTableRecord
100
AcDbLinetypeTableRecord
2
DASHDOT
70
0
3
Dash dot __ . __ . __ . __ . __ . __ . __ . __
72
65
73
4
40
25.4
49
12.7
74
0
49
-6.35
74
0
49
0
74
0
49
-6.35
74
0
0
LTYPE
5
39
330
5
100
AcDbSymbolTableRecord
100
AcDbLinetypeTableRecord
2
DASHDOT2
70
0
3
Dash dot (.5x) _._._._._._._._._._._._._._._.
72
65
73
4
40
12.7
49
6.35
74
0
49
-3.175
74
0
49
0
74
0
49
-3.175
74
0
0
LTYPE
5
3A
330
5
100
AcDbSymbolTableRecord
100
AcDbLinetypeTableRecord
2
DASHDOTX2
70
0
3
Dash dot (2x) ____  .  ____  .  ____  .  ___
72
65
73
4
40
50.8
49
25.4
74
0
49
-12.7
74
0
49
0
74
0
49
-12.7
74
0
0
LTYPE
5
3B
330
5
100
AcDbSymbolTableRecord
100
AcDbLinetypeTableRecord
2
DIVIDE
70
0
3
Divide ____ . . ____ . . ____ . . ____ . . ____
72
65
73
6
40
31.75
49
12.7
74
0
49
-6.35
74
0
49
0
74
0
49
-6.35
74
0
49
0
74
0
49
-6.35
74
0
0
LTYPE
5
3C
330
5
100
AcDbSymbolTableRecord
100
AcDbLinetypeTableRecord
2
DIVIDE2
70
0
3
Divide (.5x) __..__..__..__..__..__..__..__.._
72
65
73
6
40
15.875
49
6.35
74
0
49
-3.175
74
0
49
0
74
0
49
-3.175
74
0
49
0
74
0
49
-3.175
74
0
0
LTYPE
5
3D
330
5
100
AcDbSymbolTableRecord
100
AcDbLinetypeTableRecord
2
DIVIDEX2
70
0
3
Divide (2x) ________  .  .  ________  .  .  _
72
65
73
6
40
63.5
49
25.4
74
0
49
-12.7
74
0
49
0
74
0
49
-12.7
74
0
49
0
74
0
49
-12.7
74
0
0
LTYPE
5
3E
330
5
100
AcDbSymbolTableRecord
100
AcDbLinetypeTableRecord
2
BORDER
70
0
3
Border __ __ . __ __ . __ __ . __ __ . __ __ .
72
65
73
6
40
44.45
49
12.7
74
0
49
-6.35
74
0
49
12.7
74
0
49
-6.35
74
0
49
0
74
0
49
-6.35
74
0
0
LTYPE
5
3F
330
5
100
AcDbSymbolTableRecord
100
AcDbLinetypeTableRecord
2
BORDER2
70
0
3
Border (.5x) __.__.__.__.__.__.__.__.__.__.__.
72
65
73
6
40
22.225
49
6.35
74
0
49
-3.175
74
0
49
6.35
74
0
49
-3.175
74
0
49
0
74
0
49
-3.175
74
0
0
LTYPE
5
40
330
5
100
AcDbSymbolTableRecord
100
AcDbLinetypeTableRecord
2
BORDERX2
70
0
3
Border (2x) ____  ____  .  ____  ____  .  ___
72
65
73
6
40
88.9
49
25.4
74
0
49
-12.7
74
0
49
25.4
74
0
49
-12.7
74
0
49
0
74
0
49
-12.7
74
0
0
LTYPE
5
41
330
5
100
AcDbSymbolTableRecord
100
AcDbLinetypeTableRecord
2
CENTER
70
0
3
Center ____ _ ____ _ ____ _ ____ _ ____ _ ____
72
65
73
4
40
50.8
49
31.75
74
0
49
-6.35
74
0
49
6.35
74
0
49
-6.35
74
0
0
LTYPE
5
42
330
5
100
AcDbSymbolTableRecord
100
AcDbLinetypeTableRecord
2
CENTER2
70
0
3
Center (.5x) ___ _ ___ _ ___ _ ___ _ ___ _ ___
72
65
73
4
40
28.575
49
19.05
74
0
49
-3.175
74
0
49
3.175
74
0
49
-3.175
74
0
0
LTYPE
5
43
330
5
100
AcDbSymbolTableRecord
100
AcDbLinetypeTableRecord
2
CENTERX2
70
0
3
Center (2x) ________  __  ________  __  _____
72
65
73
4
40
101.6
49
63.5
74
0
49
-12.7
74
0
49
12.7
74
0
49
-12.7
74
0
0
ENDTAB
0
TABLE
2
LAYER
5
2
330
0
100
AcDbSymbolTable
70
1
0
LAYER
5
10
330
2
100
AcDbSymbolTableRecord
100
AcDbLayerTableRecord
2
0
70
1
62
7
6
CONTINUOUS
370
0
390
F
0
LAYER
5
44
330
2
100
AcDbSymbolTableRecord
100
AcDbLayerTableRecord
2
cotes
70
0
62
7
6
CONTINUOUS
370
0
390
F
0
LAYER
5
45
330
2
100
AcDbSymbolTableRecord
100
AcDbLayerTableRecord
2
ossature0
70
5
62
7
6
CONTINUOUS
370
0
390
F
0
LAYER
5
46
330
2
100
AcDbSymbolTableRecord
100
AcDbLayerTableRecord
2
ossature1
70
4
62
7
6
CONTINUOUS
370
0
390
F
0
LAYER
5
47
330
2
100
AcDbSymbolTableRecord
100
AcDbLayerTableRecord
2
ossature2
70
0
62
7
6
CONTINUOUS
370
0
390
F
0
LAYER
5
48
330
2
100
AcDbSymbolTableRecord
100
AcDbLayerTableRecord
2
profil
70
0
62
7
6
CONTINUOUS
370
0
390
F
0
ENDTAB
0
TABLE
2
STYLE
5
3
330
0
100
AcDbSymbolTable
70
3
0
STYLE
5
49
330
2
100
AcDbSymbolTableRecord
100
AcDbTextStyleTableRecord
2
Standard
70
0
40
0
41
1
50
0
71
0
42
1
3
txt
4

0
ENDTAB
0
TABLE
2
VIEW
5
6
330
0
100
AcDbSymbolTable
70
0
0
ENDTAB
0
TABLE
2
UCS
5
7
330
0
100
AcDbSymbolTable
70
0
0
ENDTAB
0
TABLE
2
APPID
5
9
330
0
100
AcDbSymbolTable
70
1
0
APPID
5
12
330
9
100
AcDbSymbolTableRecord
100
AcDbRegAppTableRecord
2
ACAD
70
0
0
ENDTAB
0
TABLE
2
DIMSTYLE
5
A
330
0
100
AcDbSymbolTable
70
1
100
AcDbDimStyleTable
71
1
0
DIMSTYLE
105
4A
330
A
100
AcDbSymbolTableRecord
100
AcDbDimStyleTableRecord
2
Standard
70
0
40
1
41
2.5
42
0.625
43
0.38
44
1.25
45
0
46
0
47
0
48
0
140
2.5
141
0.09
142
0
143
25.4
144
1
145
0
146
1
147
0.625
148
0
71
0
72
0
73
0
74
1
75
0
76
0
77
0
78
0
79
0
170
0
171
2
172
0
173
0
174
0
175
0
176
0
177
0
178
0
179
0
271
4
272
4
273
2
274
2
275
0
276
0
277
2
278
46
279
0
280
0
281
0
282
0
283
1
284
0
285
0
286
0
288
0
289
3
340
Standard
341

371
-2
372
-2
0
ENDTAB
0
TABLE
2
BLOCK_RECORD
5
1
330
0
100
AcDbSymbolTable
70
2
0
BLOCK_RECORD
5
1F
330
1
100
AcDbSymbolTableRecord
100
AcDbBlockTableRecord
2
*Model_Space
70
0
280
1
281
0
0
BLOCK_RECORD
5
1E
330
1
100
AcDbSymbolTableRecord
100
AcDbBlockTableRecord
2
*Paper_Space
70
0
280
1
281
0
0
BLOCK_RECORD
5
4B
330
1
100
AcDbSymbolTableRecord
100
AcDbBlockTableRecord
2
*D3
70
0
280
1
281
0
0
BLOCK_RECORD
5
4E
330
1
100
AcDbSymbolTableRecord
100
AcDbBlockTableRecord
2
*D2
70
0
280
1
281
0
0
BLOCK_RECORD
5
51
330
1
100
AcDbSymbolTableRecord
100
AcDbBlockTableRecord
2
*D5
70
0
280
1
281
0
0
BLOCK_RECORD
5
54
330
1
100
AcDbSymbolTableRecord
100
AcDbBlockTableRecord
2
*D4
70
0
280
1
281
0
0
BLOCK_RECORD
5
57
330
1
100
AcDbSymbolTableRecord
100
AcDbBlockTableRecord
2
*D1
70
0
280
1
281
0
0
ENDTAB
0
ENDSEC
0
SECTION
2
BLOCKS
0
BLOCK
5
20
330
1F
100
AcDbEntity
8
0
100
AcDbBlockBegin
2
*Model_Space
70
0
10
0
20
0
30
0
3
*Model_Space
1

0
ENDBLK
5
21
330
1F
100
AcDbEntity
8
0
100
AcDbBlockEnd
0
BLOCK
5
1C
330
1B
100
AcDbEntity
8
0
100
AcDbBlockBegin
2
*Paper_Space
70
0
10
0
20
0
30
0
3
*Paper_Space
1

0
ENDBLK
5
1D
330
1F
100
AcDbEntity
8
0
100
AcDbBlockEnd
0
BLOCK
5
4C
330
4B
100
AcDbEntity
8
0
100
AcDbBlockBegin
2
*D3
70
1
10
0
20
0
3
*D3
1

0
LINE
5
5A
100
AcDbEntity
8
cotes
6
CONTINUOUS
62
7
370
0
100
AcDbLine
10
-36.728670107
20
60.6159227197
11
-35.6660014688
21
58.7753266467
0
LINE
5
5B
100
AcDbEntity
8
cotes
6
CONTINUOUS
62
7
370
0
100
AcDbLine
10
-34.1305938956
20
62.1159227197
11
-33.0679252574
21
60.2753266467
0
LINE
5
5C
100
AcDbEntity
8
cotes
6
CONTINUOUS
62
7
370
0
100
AcDbLine
10
-40.6211284877
20
57.3578584015
11
-29.3627982384
21
63.8578584014
0
SOLID
5
5D
100
AcDbEntity
8
cotes
6
CONTINUOUS
62
7
370
0
100
AcDbTrace
10
-36.2910014688
20
59.8578584014
30
0
11
-38.2479226494
21
58.2473453126
31
0
12
-38.6642073071
22
58.9683714903
32
0
13
-38.6642073071
23
58.9683714903
33
0
0
SOLID
5
5E
100
AcDbEntity
8
cotes
6
CONTINUOUS
62
7
370
0
100
AcDbTrace
10
-33.6929252574
20
61.3578584014
30
0
11
-31.7360040768
21
62.9683714902
31
0
12
-31.319719419
22
62.2473453126
32
0
13
-31.319719419
23
62.2473453126
33
0
0
MTEXT
5
5F
100
AcDbEntity
8
cotes
6
CONTINUOUS
62
7
370
0
100
AcDbMText
10
-35.9294633631
20
62.2316560335
30
0
40
2.5
41
1.11111111111
71
5
72
1
1
3
7
standard
210
0
220
0
230
1
50
29.9999999996
73
2
44
1
0
ENDBLK
5
4D
330
4B
100
AcDbEntity
8
0
100
AcDbBlockEnd
0
BLOCK
5
4F
330
4E
100
AcDbEntity
8
0
100
AcDbBlockBegin
2
*D2
70
1
10
0
20
0
3
*D2
1

0
LINE
5
60
100
AcDbEntity
8
cotes
6
CONTINUOUS
62
7
370
0
100
AcDbLine
10
192.745967856
20
50
11
192.745967856
21
151.6
0
SOLID
5
61
100
AcDbEntity
8
cotes
6
CONTINUOUS
62
7
370
0
100
AcDbTrace
10
192.745967856
20
50
30
0
11
192.329683199
21
52.5
31
0
12
193.162252514
22
52.5
32
0
13
193.162252514
23
52.5
33
0
0
SOLID
5
62
100
AcDbEntity
8
cotes
6
CONTINUOUS
62
7
370
0
100
AcDbTrace
10
192.745967856
20
151.6
30
0
11
193.162252514
21
149.1
31
0
12
192.329683199
22
149.1
32
0
13
192.329683199
23
149.1
33
0
0
MTEXT
5
63
100
AcDbEntity
8
cotes
6
CONTINUOUS
62
7
370
0
100
AcDbMText
10
190.870967856
20
100.8
30
0
40
2.5
41
6.66666666667
71
5
72
1
1
101.6
7
standard
210
0
220
0
230
1
50
90
73
2
44
1
0
LINE
5
64
100
AcDbEntity
8
cotes
6
CONTINUOUS
62
7
370
0
100
AcDbLine
10
150.617499812
20
50
11
193.995967856
21
50
0
LINE
5
65
100
AcDbEntity
8
cotes
6
CONTINUOUS
62
7
370
0
100
AcDbLine
10
50.6024949352
20
151.6
11
193.995967856
21
151.6
0
ENDBLK
5
50
330
4E
100
AcDbEntity
8
0
100
AcDbBlockEnd
0
BLOCK
5
52
330
51
100
AcDbEntity
8
0
100
AcDbBlockBegin
2
*D5
70
1
10
0
20
0
3
*D5
1

0
LINE
5
66
100
AcDbEntity
8
cotes
6
CONTINUOUS
62
7
370
0
100
AcDbLine
10
49.9774949352
20
158.2
11
49.9774949352
21
145
0
SOLID
5
67
100
AcDbEntity
8
cotes
6
CONTINUOUS
62
7
370
0
100
AcDbTrace
10
49.9774949352
20
153.2
30
0
11
49.5612102774
21
155.7
31
0
12
50.393779593
22
155.7
32
0
13
50.393779593
23
155.7
33
0
0
SOLID
5
68
100
AcDbEntity
8
cotes
6
CONTINUOUS
62
7
370
0
100
AcDbTrace
10
49.9774949352
20
150
30
0
11
50.393779593
21
147.5
31
0
12
49.5612102774
22
147.5
32
0
13
49.5612102774
23
147.5
33
0
0
MTEXT
5
69
100
AcDbEntity
8
cotes
6
CONTINUOUS
62
7
370
0
100
AcDbMText
10
48.1024949352
20
155.769444444
30
0
40
2.5
41
3.88888888889
71
5
72
1
1
3.2
7
standard
210
0
220
0
230
1
50
90
73
2
44
1
0
LINE
5
6A
100
AcDbEntity
8
cotes
6
CONTINUOUS
62
7
370
0
100
AcDbLine
10
48.6024949352
20
153.2
11
51.2274949352
21
153.2
0
LINE
5
6B
100
AcDbEntity
8
cotes
6
CONTINUOUS
62
7
370
0
100
AcDbLine
10
48.6024949352
20
150
11
51.2274949352
21
150
0
ENDBLK
5
53
330
51
100
AcDbEntity
8
0
100
AcDbBlockEnd
0
BLOCK
5
55
330
54
100
AcDbEntity
8
0
100
AcDbBlockBegin
2
*D4
70
1
10
0
20
0
3
*D4
1

0
LINE
5
6C
100
AcDbEntity
8
cotes
6
CONTINUOUS
62
7
370
0
100
AcDbLine
10
69.9839267261
20
6.6
11
69.9839267261
21
-6.6
0
SOLID
5
6D
100
AcDbEntity
8
cotes
6
CONTINUOUS
62
7
370
0
100
AcDbTrace
10
69.9839267261
20
1.6
30
0
11
69.5676420683
21
4.1
31
0
12
70.4002113839
22
4.1
32
0
13
70.4002113839
23
4.1
33
0
0
SOLID
5
6E
100
AcDbEntity
8
cotes
6
CONTINUOUS
62
7
370
0
100
AcDbTrace
10
69.9839267261
20
-1.6
30
0
11
70.4002113839
21
-4.1
31
0
12
69.5676420683
22
-4.1
32
0
13
69.5676420683
23
-4.1
33
0
0
MTEXT
5
6F
100
AcDbEntity
8
cotes
6
CONTINUOUS
62
7
370
0
100
AcDbMText
10
68.1089267261
20
4.16944444444
30
0
40
2.5
41
3.88888888889
71
5
72
1
1
3.2
7
standard
210
0
220
0
230
1
50
90
73
2
44
1
0
LINE
5
70
100
AcDbEntity
8
cotes
6
CONTINUOUS
62
7
370
0
100
AcDbLine
10
68.6089267261
20
1.6
11
71.2339267261
21
1.6
0
LINE
5
71
100
AcDbEntity
8
cotes
6
CONTINUOUS
62
7
370
0
100
AcDbLine
10
68.6089267261
20
-1.6
11
71.2339267261
21
-1.6
0
ENDBLK
5
56
330
54
100
AcDbEntity
8
0
100
AcDbBlockEnd
0
BLOCK
5
58
330
57
100
AcDbEntity
8
0
100
AcDbBlockBegin
2
*D1
70
1
10
0
20
0
3
*D1
1

0
LINE
5
72
100
AcDbEntity
8
cotes
6
CONTINUOUS
62
7
370
0
100
AcDbLine
10
192.745967856
20
7.1054273576e-15
11
192.745967856
21
50
0
SOLID
5
73
100
AcDbEntity
8
cotes
6
CONTINUOUS
62
7
370
0
100
AcDbTrace
10
192.745967856
20
7.1054273576e-15
30
0
11
192.329683199
21
2.5
31
0
12
193.162252514
22
2.5
32
0
13
193.162252514
23
2.5
33
0
0
SOLID
5
74
100
AcDbEntity
8
cotes
6
CONTINUOUS
62
7
370
0
100
AcDbTrace
10
192.745967856
20
50
30
0
11
193.162252514
21
47.5
31
0
12
192.329683199
22
47.5
32
0
13
192.329683199
23
47.5
33
0
0
MTEXT
5
75
100
AcDbEntity
8
cotes
6
CONTINUOUS
62
7
370
0
100
AcDbMText
10
190.870967856
20
25
30
0
40
2.5
41
3.05555555556
71
5
72
1
1
50
7
standard
210
0
220
0
230
1
50
90
73
2
44
1
0
LINE
5
76
100
AcDbEntity
8
cotes
6
CONTINUOUS
62
7
370
0
100
AcDbLine
10
70.6089267261
20
0
11
193.995967856
21
7.1054273576e-15
0
LINE
5
77
100
AcDbEntity
8
cotes
6
CONTINUOUS
62
7
370
0
100
AcDbLine
10
150.617499812
20
50
11
193.995967856
21
50
0
ENDBLK
5
59
330
57
100
AcDbEntity
8
0
100
AcDbBlockEnd
0
ENDSEC
0
SECTION
2
ENTITIES
0
CIRCLE
5
78
100
AcDbEntity
8
ossature0
6
ByLayer
62
256
370
-1
100
AcDbCircle
10
0
20
0
40
148.5
0
LINE
5
79
100
AcDbEntity
8
ossature0
6
ByLayer
62
256
370
-1
100
AcDbLine
10
149.992499812
20
1.5
11
151.492574075
21
1.5
0
LINE
5
7A
100
AcDbEntity
8
ossature0
6
ByLayer
62
256
370
-1
100
AcDbLine
10
149.992499812
20
-1.5
11
151.492574075
21
-1.5
0
LINE
5
7B
100
AcDbEntity
8
ossature0
6
ByLayer
62
256
370
-1
100
AcDbLine
10
73.6972118006
20
130.647315215
11
74.447248932
21
131.946417634
0
ARC
5
7C
100
AcDbEntity
8
ossature0
6
ByLayer
62
256
370
-1
100
AcDbCircle
10
0
20
0
40
151.5
100
AcDbArc
50
0.567294214536
51
59.4327057855
0
LINE
5
7D
100
AcDbEntity
8
ossature0
6
ByLayer
62
256
370
-1
100
AcDbLine
10
76.2952880119
20
129.147315215
11
77.0453251434
21
130.446417634
0
ARC
5
7E
100
AcDbEntity
8
ossature0
6
ByLayer
62
256
370
-1
100
AcDbCircle
10
0
20
0
40
151.5
100
AcDbArc
50
60.5672942145
51
119.432705785
0
LINE
5
7F
100
AcDbEntity
8
ossature0
6
ByLayer
62
256
370
-1
100
AcDbLine
10
-73.6972118006
20
130.647315215
11
-74.447248932
21
131.946417634
0
LINE
5
80
100
AcDbEntity
8
ossature0
6
ByLayer
62
256
370
-1
100
AcDbLine
10
-76.2952880119
20
129.147315215
11
-77.0453251434
21
130.446417634
0
LINE
5
81
100
AcDbEntity
8
ossature0
6
ByLayer
62
256
370
-1
100
AcDbLine
10
-149.992499812
20
-1.5
11
-151.492574075
21
-1.5
0
ARC
5
82
100
AcDbEntity
8
ossature0
6
ByLayer
62
256
370
-1
100
AcDbCircle
10
0
20
0
40
151.5
100
AcDbArc
50
120.567294215
51
179.432705785
0
LINE
5
83
100
AcDbEntity
8
ossature0
6
ByLayer
62
256
370
-1
100
AcDbLine
10
-149.992499812
20
1.5
11
-151.492574075
21
1.5
0
ARC
5
84
100
AcDbEntity
8
ossature0
6
ByLayer
62
256
370
-1
100
AcDbCircle
10
0
20
0
40
151.5
100
AcDbArc
50
180.567294215
51
239.432705785
0
LINE
5
85
100
AcDbEntity
8
ossature0
6
ByLayer
62
256
370
-1
100
AcDbLine
10
-76.2952880119
20
-129.147315215
11
-77.0453251434
21
-130.446417634
0
LINE
5
86
100
AcDbEntity
8
ossature0
6
ByLayer
62
256
370
-1
100
AcDbLine
10
-74.447248932
20
-131.946417634
11
-73.6972118006
21
-130.647315215
0
ARC
5
87
100
AcDbEntity
8
ossature0
6
ByLayer
62
256
370
-1
100
AcDbCircle
10
0
20
0
40
151.5
100
AcDbArc
50
300.567294215
51
359.432705785
0
LINE
5
88
100
AcDbEntity
8
ossature0
6
ByLayer
62
256
370
-1
100
AcDbLine
10
76.2952880119
20
-129.147315215
11
77.0453251434
21
-130.446417634
0
ARC
5
89
100
AcDbEntity
8
ossature0
6
ByLayer
62
256
370
-1
100
AcDbCircle
10
0
20
0
40
151.5
100
AcDbArc
50
240.567294215
51
299.432705785
0
LINE
5
8A
100
AcDbEntity
8
ossature0
6
ByLayer
62
256
370
-1
100
AcDbLine
10
73.6972118006
20
-130.647315215
11
74.447248932
21
-131.946417634
0
LINE
5
8B
100
AcDbEntity
8
ossature0
6
ByLayer
62
256
370
-1
100
AcDbLine
10
149.992499812
20
1.5
11
149.992499812
21
-1.5
0
LINE
5
8C
100
AcDbEntity
8
ossature0
6
ByLayer
62
256
370
-1
100
AcDbLine
10
73.6972118006
20
130.647315215
11
76.2952880119
21
129.147315215
0
LINE
5
8D
100
AcDbEntity
8
ossature0
6
ByLayer
62
256
370
-1
100
AcDbLine
10
-73.6972118006
20
130.647315215
11
-76.2952880119
21
129.147315215
0
LINE
5
8E
100
AcDbEntity
8
ossature0
6
ByLayer
62
256
370
-1
100
AcDbLine
10
-149.992499812
20
1.5
11
-149.992499812
21
-1.5
0
LINE
5
8F
100
AcDbEntity
8
ossature0
6
ByLayer
62
256
370
-1
100
AcDbLine
10
-76.2952880119
20
-129.147315215
11
-73.6972118006
21
-130.647315215
0
LINE
5
90
100
AcDbEntity
8
ossature0
6
ByLayer
62
256
370
-1
100
AcDbLine
10
76.2952880119
20
-129.147315215
11
73.6972118006
21
-130.647315215
0
CIRCLE
5
91
100
AcDbEntity
8
ossature1
6
ByLayer
62
256
370
-1
100
AcDbCircle
10
0
20
0
40
68.5
0
LINE
5
92
100
AcDbEntity
8
ossature1
6
ByLayer
62
256
370
-1
100
AcDbLine
10
37.041170107
20
61.1571885971
11
36.2910014687
21
59.8578584014
0
LINE
5
93
100
AcDbEntity
8
ossature1
6
ByLayer
62
256
370
-1
100
AcDbLine
10
34.4430938956
20
62.6571885971
11
33.6929252574
21
61.3578584014
0
LINE
5
94
100
AcDbEntity
8
ossature1
6
ByLayer
62
256
370
-1
100
AcDbLine
10
-69.9839267261
20
-1.5
11
-71.4842640026
21
-1.5
0
LINE
5
95
100
AcDbEntity
8
ossature1
6
ByLayer
62
256
370
-1
100
AcDbLine
10
-36.2910014687
20
59.8578584014
11
-37.041170107
21
61.1571885971
0
LINE
5
96
100
AcDbEntity
8
ossature1
6
ByLayer
62
256
370
-1
100
AcDbLine
10
-33.6929252574
20
61.3578584014
11
-34.4430938956
21
62.6571885971
0
ARC
5
97
100
AcDbEntity
8
ossature1
6
ByLayer
62
256
370
-1
100
AcDbCircle
10
0
20
0
40
71.5
100
AcDbArc
50
61.2020975491
51
118.797902451
0
ARC
5
98
100
AcDbEntity
8
ossature1
6
ByLayer
62
256
370
-1
100
AcDbCircle
10
0
20
0
40
71.5
100
AcDbArc
50
1.20209754914
51
58.7979024509
0
ARC
5
99
100
AcDbEntity
8
ossature1
6
ByLayer
62
256
370
-1
100
AcDbCircle
10
0
20
0
40
71.5
100
AcDbArc
50
301.202097549
51
358.797902451
0
ARC
5
9A
100
AcDbEntity
8
ossature1
6
ByLayer
62
256
370
-1
100
AcDbCircle
10
0
20
0
40
71.5
100
AcDbArc
50
241.202097549
51
298.797902451
0
LINE
5
9B
100
AcDbEntity
8
ossature1
6
ByLayer
62
256
370
-1
100
AcDbLine
10
-69.9839267261
20
1.5
11
-69.9839267261
21
-1.5
0
LINE
5
9C
100
AcDbEntity
8
ossature1
6
ByLayer
62
256
370
-1
100
AcDbLine
10
-36.2910014687
20
-59.8578584014
11
-33.6929252574
21
-61.3578584014
0
LINE
5
9D
100
AcDbEntity
8
ossature1
6
ByLayer
62
256
370
-1
100
AcDbLine
10
33.6929252574
20
-61.3578584014
11
36.2910014687
21
-59.8578584014
0
LINE
5
9E
100
AcDbEntity
8
ossature1
6
ByLayer
62
256
370
-1
100
AcDbLine
10
69.9839267261
20
-1.5
11
69.9839267261
21
1.5
0
LINE
5
9F
100
AcDbEntity
8
ossature1
6
ByLayer
62
256
370
-1
100
AcDbLine
10
33.6929252574
20
61.3578584014
11
36.2910014687
21
59.8578584014
0
LINE
5
A0
100
AcDbEntity
8
ossature1
6
ByLayer
62
256
370
-1
100
AcDbLine
10
-36.2910014687
20
59.8578584014
11
-33.6929252574
21
61.3578584014
0
LINE
5
A1
100
AcDbEntity
8
ossature1
6
ByLayer
62
256
370
-1
100
AcDbLine
10
-69.9839267261
20
1.5
11
-71.4842640026
21
1.5
0
ARC
5
A2
100
AcDbEntity
8
ossature1
6
ByLayer
62
256
370
-1
100
AcDbCircle
10
0
20
0
40
71.5
100
AcDbArc
50
121.202097549
51
178.797902451
0
LINE
5
A3
100
AcDbEntity
8
ossature1
6
ByLayer
62
256
370
-1
100
AcDbLine
10
-36.2910014687
20
-59.8578584014
11
-37.041170107
21
-61.1571885971
0
ARC
5
A4
100
AcDbEntity
8
ossature1
6
ByLayer
62
256
370
-1
100
AcDbCircle
10
0
20
0
40
71.5
100
AcDbArc
50
181.202097549
51
238.797902451
0
LINE
5
A5
100
AcDbEntity
8
ossature1
6
ByLayer
62
256
370
-1
100
AcDbLine
10
-33.6929252574
20
-61.3578584014
11
-34.4430938958
21
-62.657188597
0
LINE
5
A6
100
AcDbEntity
8
ossature1
6
ByLayer
62
256
370
-1
100
AcDbLine
10
33.6929252574
20
-61.3578584014
11
34.4430938958
21
-62.657188597
0
LINE
5
A7
100
AcDbEntity
8
ossature1
6
ByLayer
62
256
370
-1
100
AcDbLine
10
36.2910014687
20
-59.8578584014
11
37.0411701069
21
-61.1571885972
0
LINE
5
A8
100
AcDbEntity
8
ossature1
6
ByLayer
62
256
370
-1
100
AcDbLine
10
71.4842640026
20
1.5
11
69.9839267261
21
1.5
0
LINE
5
A9
100
AcDbEntity
8
ossature1
6
ByLayer
62
256
370
-1
100
AcDbLine
10
69.9839267261
20
-1.5
11
71.4842640026
21
-1.49999999983
0
POINT
5
AA
100
AcDbEntity
8
ossature2
6
ByLayer
62
256
370
-1
100
AcDbPoint
10
0
20
0
0
LINE
5
AB
100
AcDbEntity
8
ossature2
6
ByLayer
62
256
370
-1
100
AcDbLine
10
-23.7009618943
20
44.0512701892
11
-26.2990381057
21
42.5512701892
0
LINE
5
AC
100
AcDbEntity
8
ossature2
6
ByLayer
62
256
370
-1
100
AcDbLine
10
26.2877855733
20
42.5317802314
11
23.6897093619
21
44.0317802314
0
LINE
5
AD
100
AcDbEntity
8
ossature2
6
ByLayer
62
256
370
-1
100
AcDbLine
10
26.2877855733
20
-42.5317802314
11
23.6897093619
21
-44.0317802314
0
LINE
5
AE
100
AcDbEntity
8
ossature2
6
ByLayer
62
256
370
-1
100
AcDbLine
10
-23.6897093619
20
-44.0317802314
11
-26.2877855733
21
-42.5317802314
0
LINE
5
AF
100
AcDbEntity
8
ossature2
6
ByLayer
62
256
370
-1
100
AcDbLine
10
-50
20
-1.5
11
-50
21
1.5
0
LINE
5
B0
100
AcDbEntity
8
ossature2
6
ByLayer
62
256
370
-1
100
AcDbLine
10
51.4781507049
20
-1.5
11
49.9774949352
21
-1.5
0
ARC
5
B1
100
AcDbEntity
8
ossature2
6
ByLayer
62
256
370
-1
100
AcDbCircle
10
0
20
0
40
51.5218400293
100
AcDbArc
50
61.6683374483
51
118.331662552
0
ARC
5
B2
100
AcDbEntity
8
ossature2
6
ByLayer
62
256
370
-1
100
AcDbCircle
10
0
20
0
40
51.5218400293
100
AcDbArc
50
121.668337448
51
178.281641998
0
ARC
5
B3
100
AcDbEntity
8
ossature2
6
ByLayer
62
256
370
-1
100
AcDbCircle
10
0
20
0
40
51.5
100
AcDbArc
50
181.669045154
51
238.330954846
0
ARC
5
B4
100
AcDbEntity
8
ossature2
6
ByLayer
62
256
370
-1
100
AcDbCircle
10
0
20
0
40
51.5
100
AcDbArc
50
241.669045154
51
298.330954846
0
ARC
5
B5
100
AcDbEntity
8
ossature2
6
ByLayer
62
256
370
-1
100
AcDbCircle
10
0
20
0
40
51.5
100
AcDbArc
50
301.669045154
51
358.330954846
0
LINE
5
B6
100
AcDbEntity
8
ossature2
6
ByLayer
62
256
370
-1
100
AcDbLine
10
-27.0381134581
20
-43.8313862503
11
-26.2877855733
21
-42.5317802314
0
LINE
5
B7
100
AcDbEntity
8
ossature2
6
ByLayer
62
256
370
-1
100
AcDbLine
10
-24.4400372468
20
-45.3313862503
11
-23.6897093619
21
-44.0317802314
0
LINE
5
B8
100
AcDbEntity
8
ossature2
6
ByLayer
62
256
370
-1
100
AcDbLine
10
-51.4986708393
20
1.54496012518
11
-50
21
1.5
0
LINE
5
B9
100
AcDbEntity
8
ossature2
6
ByLayer
62
256
370
-1
100
AcDbLine
10
-50
20
-1.5
11
-51.4781507049
21
-1.5
0
LINE
5
BA
100
AcDbEntity
8
ossature2
6
ByLayer
62
256
370
-1
100
AcDbLine
10
-24.4509618943
20
45.3503082949
11
-23.7009618943
21
44.0512701892
0
LINE
5
BB
100
AcDbEntity
8
ossature2
6
ByLayer
62
256
370
-1
100
AcDbLine
10
-27.0490381057
20
43.8503082949
11
-26.2990381057
21
42.5512701892
0
LINE
5
BC
100
AcDbEntity
8
ossature2
6
ByLayer
62
256
370
-1
100
AcDbLine
10
24.4509618943
20
45.3503082949
11
23.6897093619
21
44.0317802314
0
LINE
5
BD
100
AcDbEntity
8
ossature2
6
ByLayer
62
256
370
-1
100
AcDbLine
10
27.0381134581
20
43.8313862503
11
26.2877855733
21
42.5317802314
0
LINE
5
BE
100
AcDbEntity
8
ossature2
6
ByLayer
62
256
370
-1
100
AcDbLine
10
26.2877855733
20
-42.5317802314
11
27.0381134581
21
-43.8313862503
0
LINE
5
BF
100
AcDbEntity
8
ossature2
6
ByLayer
62
256
370
-1
100
AcDbLine
10
23.6897093619
20
-44.0317802314
11
24.4400372468
21
-45.3313862503
0
ARC
5
C0
100
AcDbEntity
8
ossature2
6
ByLayer
62
256
370
-1
100
AcDbCircle
10
0
20
0
40
51.5
100
AcDbArc
50
1.66904515405
51
58.330954846
0
LINE
5
C1
100
AcDbEntity
8
ossature2
6
ByLayer
62
256
370
-1
100
AcDbLine
10
51.4781507049
20
1.5
11
49.9774949352
21
1.5
0
LINE
5
C2
100
AcDbEntity
8
ossature2
6
ByLayer
62
256
370
-1
100
AcDbLine
10
49.9774949352
20
-1.5
11
49.9774949352
21
1.5
0
LINE
5
C3
100
AcDbEntity
8
profil
6
ByLayer
62
256
370
-1
100
AcDbLine
10
149.992499812
20
51.6
11
149.992499812
21
48.4
0
LINE
5
C4
100
AcDbEntity
8
profil
6
ByLayer
62
256
370
-1
100
AcDbLine
10
148.392259734
20
51.6
11
149.992499812
21
51.6
0
LINE
5
C5
100
AcDbEntity
8
profil
6
ByLayer
62
256
370
-1
100
AcDbLine
10
147.432225473
20
48.4
11
149.992499812
21
48.4
0
LINE
5
C6
100
AcDbEntity
8
profil
6
ByLayer
62
256
370
-1
100
AcDbLine
10
67.9839267261
20
-3.53763644645
11
69.9839267261
21
-3.53763644645
0
LINE
5
C7
100
AcDbEntity
8
profil
6
ByLayer
62
256
370
-1
100
AcDbLine
10
67.9839267261
20
1.6
11
69.9839267261
21
1.6
0
LINE
5
C8
100
AcDbEntity
8
profil
6
ByLayer
62
256
370
-1
100
AcDbLine
10
67.9839267261
20
-1.6
11
67.9839267261
21
-3.53763644645
0
LINE
5
C9
100
AcDbEntity
8
profil
6
ByLayer
62
256
370
-1
100
AcDbLine
10
147.432225473
20
48.4
11
80.1224898616
21
6.33592297951
0
LINE
5
CA
100
AcDbEntity
8
profil
6
ByLayer
62
256
370
-1
100
AcDbLine
10
67.9839267261
20
1.6
11
80.1224898616
21
6.33592297951
0
LINE
5
CB
100
AcDbEntity
8
profil
6
ByLayer
62
256
370
-1
100
AcDbLine
10
69.9839267261
20
1.6
11
69.9839267261
21
-1.6
0
LINE
5
CC
100
AcDbEntity
8
profil
6
ByLayer
62
256
370
-1
100
AcDbLine
10
67.9839267261
20
-1.6
11
69.9839267261
21
-1.6
0
LINE
5
CD
100
AcDbEntity
8
profil
6
ByLayer
62
256
370
-1
100
AcDbLine
10
47.9774949352
20
148.4
11
61.5939055654
21
138.385332136
0
LINE
5
CE
100
AcDbEntity
8
profil
6
ByLayer
62
256
370
-1
100
AcDbLine
10
148.392259734
20
51.6
11
61.5939055654
21
138.385332136
0
LINE
5
CF
100
AcDbEntity
8
profil
6
ByLayer
62
256
370
-1
100
AcDbLine
10
47.9774949352
20
150
11
47.9774949352
21
148.4
0
LINE
5
D0
100
AcDbEntity
8
profil
6
ByLayer
62
256
370
-1
100
AcDbLine
10
47.9774949352
20
150
11
49.9774949352
21
150
0
LINE
5
D1
100
AcDbEntity
8
profil
6
ByLayer
62
256
370
-1
100
AcDbLine
10
49.9774949352
20
153.2
11
49.9774949352
21
150
0
LINE
5
D2
100
AcDbEntity
8
profil
6
ByLayer
62
256
370
-1
100
AcDbLine
10
47.9774949352
20
153.2
11
49.9774949352
21
153.2
0
LINE
5
D3
100
AcDbEntity
8
profil
6
ByLayer
62
256
370
-1
100
AcDbLine
10
54.6315680287
20
152.417162548
11
51.802928695
21
152.417162548
0
LINE
5
D4
100
AcDbEntity
8
profil
6
ByLayer
62
256
370
-1
100
AcDbLine
10
56.031778097
20
151.017162548
11
53.2031387633
21
151.017162548
0
LINE
5
D5
100
AcDbEntity
8
profil
6
ByLayer
62
256
370
-1
100
AcDbLine
10
59.6323182726
20
147.417162548
11
56.8036789389
21
147.417162548
0
LINE
5
D6
100
AcDbEntity
8
profil
6
ByLayer
62
256
370
-1
100
AcDbLine
10
61.0325283409
20
146.017162548
11
58.2038890071
21
146.017162548
0
LINE
5
D7
100
AcDbEntity
8
profil
6
ByLayer
62
256
370
-1
100
AcDbLine
10
64.6330685164
20
142.417162548
11
61.8044291827
21
142.417162548
0
LINE
5
D8
100
AcDbEntity
8
profil
6
ByLayer
62
256
370
-1
100
AcDbLine
10
66.0332785847
20
141.017162548
11
63.204639251
21
141.017162548
0
LINE
5
D9
100
AcDbEntity
8
profil
6
ByLayer
62
256
370
-1
100
AcDbLine
10
69.6338187603
20
137.417162548
11
66.8051794266
21
137.417162548
0
LINE
5
DA
100
AcDbEntity
8
profil
6
ByLayer
62
256
370
-1
100
AcDbLine
10
71.0340288285
20
136.017162548
11
68.2053894948
21
136.017162548
0
LINE
5
DB
100
AcDbEntity
8
profil
6
ByLayer
62
256
370
-1
100
AcDbLine
10
74.6345690041
20
132.417162548
11
71.8059296704
21
132.417162548
0
LINE
5
DC
100
AcDbEntity
8
profil
6
ByLayer
62
256
370
-1
100
AcDbLine
10
76.0347790724
20
131.017162548
11
73.2061397387
21
131.017162548
0
LINE
5
DD
100
AcDbEntity
8
profil
6
ByLayer
62
256
370
-1
100
AcDbLine
10
79.6353192479
20
127.417162548
11
76.8066799142
21
127.417162548
0
LINE
5
DE
100
AcDbEntity
8
profil
6
ByLayer
62
256
370
-1
100
AcDbLine
10
81.0355293162
20
126.017162548
11
78.2068899825
21
126.017162548
0
LINE
5
DF
100
AcDbEntity
8
profil
6
ByLayer
62
256
370
-1
100
AcDbLine
10
84.6360694918
20
122.417162548
11
81.8074301581
21
122.417162548
0
LINE
5
E0
100
AcDbEntity
8
profil
6
ByLayer
62
256
370
-1
100
AcDbLine
10
86.0362795601
20
121.017162548
11
83.2076402263
21
121.017162548
0
LINE
5
E1
100
AcDbEntity
8
profil
6
ByLayer
62
256
370
-1
100
AcDbLine
10
89.6368197356
20
117.417162548
11
86.8081804019
21
117.417162548
0
LINE
5
E2
100
AcDbEntity
8
profil
6
ByLayer
62
256
370
-1
100
AcDbLine
10
91.0370298039
20
116.017162548
11
88.2083904702
21
116.017162548
0
LINE
5
E3
100
AcDbEntity
8
profil
6
ByLayer
62
256
370
-1
100
AcDbLine
10
94.6375699795
20
112.417162548
11
91.8089306457
21
112.417162548
0
LINE
5
E4
100
AcDbEntity
8
profil
6
ByLayer
62
256
370
-1
100
AcDbLine
10
96.0377800477
20
111.017162548
11
93.209140714
21
111.017162548
0
LINE
5
E5
100
AcDbEntity
8
profil
6
ByLayer
62
256
370
-1
100
AcDbLine
10
99.6383202233
20
107.417162548
11
96.8096808896
21
107.417162548
0
LINE
5
E6
100
AcDbEntity
8
profil
6
ByLayer
62
256
370
-1
100
AcDbLine
10
101.038530292
20
106.017162548
11
98.2098909579
21
106.017162548
0
LINE
5
E7
100
AcDbEntity
8
profil
6
ByLayer
62
256
370
-1
100
AcDbLine
10
104.639070467
20
102.417162548
11
101.810431133
21
102.417162548
0
LINE
5
E8
100
AcDbEntity
8
profil
6
ByLayer
62
256
370
-1
100
AcDbLine
10
106.039280535
20
101.017162548
11
103.210641202
21
101.017162548
0
LINE
5
E9
100
AcDbEntity
8
profil
6
ByLayer
62
256
370
-1
100
AcDbLine
10
109.639820711
20
97.4171625485
11
106.811181377
21
97.4171625485
0
LINE
5
EA
100
AcDbEntity
8
profil
6
ByLayer
62
256
370
-1
100
AcDbLine
10
111.040030779
20
96.0171625485
11
108.211391446
21
96.0171625485
0
LINE
5
EB
100
AcDbEntity
8
profil
6
ByLayer
62
256
370
-1
100
AcDbLine
10
114.640570955
20
92.4171625485
11
111.811931621
21
92.4171625485
0
LINE
5
EC
100
AcDbEntity
8
profil
6
ByLayer
62
256
370
-1
100
AcDbLine
10
116.040781023
20
91.0171625485
11
113.212141689
21
91.0171625485
0
LINE
5
ED
100
AcDbEntity
8
profil
6
ByLayer
62
256
370
-1
100
AcDbLine
10
119.641321199
20
87.4171625485
11
116.812681865
21
87.4171625485
0
LINE
5
EE
100
AcDbEntity
8
profil
6
ByLayer
62
256
370
-1
100
AcDbLine
10
121.041531267
20
86.0171625485
11
118.212891933
21
86.0171625485
0
LINE
5
EF
100
AcDbEntity
8
profil
6
ByLayer
62
256
370
-1
100
AcDbLine
10
124.642071442
20
82.4171625485
11
121.813432109
21
82.4171625485
0
LINE
5
F0
100
AcDbEntity
8
profil
6
ByLayer
62
256
370
-1
100
AcDbLine
10
126.042281511
20
81.0171625485
11
123.213642177
21
81.0171625485
0
LINE
5
F1
100
AcDbEntity
8
profil
6
ByLayer
62
256
370
-1
100
AcDbLine
10
129.642821686
20
77.4171625485
11
126.814182353
21
77.4171625485
0
LINE
5
F2
100
AcDbEntity
8
profil
6
ByLayer
62
256
370
-1
100
AcDbLine
10
131.043031755
20
76.0171625485
11
128.214392421
21
76.0171625485
0
LINE
5
F3
100
AcDbEntity
8
profil
6
ByLayer
62
256
370
-1
100
AcDbLine
10
134.64357193
20
72.4171625485
11
131.814932596
21
72.4171625485
0
LINE
5
F4
100
AcDbEntity
8
profil
6
ByLayer
62
256
370
-1
100
AcDbLine
10
136.043781998
20
71.0171625485
11
133.215142665
21
71.0171625485
0
LINE
5
F5
100
AcDbEntity
8
profil
6
ByLayer
62
256
370
-1
100
AcDbLine
10
139.644322174
20
67.4171625485
11
136.81568284
21
67.4171625485
0
LINE
5
F6
100
AcDbEntity
8
profil
6
ByLayer
62
256
370
-1
100
AcDbLine
10
141.044532242
20
66.0171625485
11
138.215892909
21
66.0171625485
0
LINE
5
F7
100
AcDbEntity
8
profil
6
ByLayer
62
256
370
-1
100
AcDbLine
10
144.645072418
20
62.4171625485
11
141.816433084
21
62.4171625485
0
LINE
5
F8
100
AcDbEntity
8
profil
6
ByLayer
62
256
370
-1
100
AcDbLine
10
146.045282486
20
61.0171625485
11
143.216643152
21
61.0171625485
0
LINE
5
F9
100
AcDbEntity
8
profil
6
ByLayer
62
256
370
-1
100
AcDbLine
10
149.645822662
20
57.4171625485
11
146.817183328
21
57.4171625485
0
LINE
5
FA
100
AcDbEntity
8
profil
6
ByLayer
62
256
370
-1
100
AcDbLine
10
151.04603273
20
56.0171625485
11
148.217393396
21
56.0171625485
0
LINE
5
FB
100
AcDbEntity
8
profil
6
ByLayer
62
256
370
-1
100
AcDbLine
10
154.646572906
20
52.4171625485
11
151.817933572
21
52.4171625485
0
LINE
5
FC
100
AcDbEntity
8
profil
6
ByLayer
62
256
370
-1
100
AcDbLine
10
156.046782974
20
51.0171625485
11
153.21814364
21
51.0171625485
0
LINE
5
FD
100
AcDbEntity
8
profil
6
ByLayer
62
256
370
-1
100
AcDbLine
10
155.294225171
20
47.4171625485
11
151.520341915
21
47.4171625485
0
LINE
5
FE
100
AcDbEntity
8
profil
6
ByLayer
62
256
370
-1
100
AcDbLine
10
153.053985125
20
46.0171625485
11
149.280101869
21
46.0171625485
0
LINE
5
FF
100
AcDbEntity
8
profil
6
ByLayer
62
256
370
-1
100
AcDbLine
10
147.293367862
20
42.4171625485
11
143.519484607
21
42.4171625485
0
LINE
5
100
100
AcDbEntity
8
profil
6
ByLayer
62
256
370
-1
100
AcDbLine
10
145.053127816
20
41.0171625485
11
141.27924456
21
41.0171625485
0
LINE
5
101
100
AcDbEntity
8
profil
6
ByLayer
62
256
370
-1
100
AcDbLine
10
139.292510554
20
37.4171625485
11
135.518627298
21
37.4171625485
0
LINE
5
102
100
AcDbEntity
8
profil
6
ByLayer
62
256
370
-1
100
AcDbLine
10
137.052270507
20
36.0171625485
11
133.278387252
21
36.0171625485
0
LINE
5
103
100
AcDbEntity
8
profil
6
ByLayer
62
256
370
-1
100
AcDbLine
10
131.291653245
20
32.4171625485
11
127.51776999
21
32.4171625485
0
LINE
5
104
100
AcDbEntity
8
profil
6
ByLayer
62
256
370
-1
100
AcDbLine
10
129.051413199
20
31.0171625485
11
125.277529943
21
31.0171625485
0
LINE
5
105
100
AcDbEntity
8
profil
6
ByLayer
62
256
370
-1
100
AcDbLine
10
123.290795937
20
27.4171625485
11
119.516912681
21
27.4171625485
0
LINE
5
106
100
AcDbEntity
8
profil
6
ByLayer
62
256
370
-1
100
AcDbLine
10
121.05055589
20
26.0171625485
11
117.276672635
21
26.0171625485
0
LINE
5
107
100
AcDbEntity
8
profil
6
ByLayer
62
256
370
-1
100
AcDbLine
10
115.289938628
20
22.4171625485
11
111.516055372
21
22.4171625485
0
LINE
5
108
100
AcDbEntity
8
profil
6
ByLayer
62
256
370
-1
100
AcDbLine
10
113.049698582
20
21.0171625485
11
109.275815326
21
21.0171625485
0
LINE
5
109
100
AcDbEntity
8
profil
6
ByLayer
62
256
370
-1
100
AcDbLine
10
107.28908132
20
17.4171625485
11
103.515198064
21
17.4171625485
0
LINE
5
10A
100
AcDbEntity
8
profil
6
ByLayer
62
256
370
-1
100
AcDbLine
10
105.048841273
20
16.0171625485
11
101.274958017
21
16.0171625485
0
LINE
5
10B
100
AcDbEntity
8
profil
6
ByLayer
62
256
370
-1
100
AcDbLine
10
99.2882240109
20
12.4171625485
11
95.5143407552
21
12.4171625485
0
LINE
5
10C
100
AcDbEntity
8
profil
6
ByLayer
62
256
370
-1
100
AcDbLine
10
97.0479839645
20
11.0171625485
11
93.2741007088
21
11.0171625485
0
LINE
5
10D
100
AcDbEntity
8
profil
6
ByLayer
62
256
370
-1
100
AcDbLine
10
91.2873667023
20
7.41716254849
11
87.5134834466
21
7.41716254849
0
LINE
5
10E
100
AcDbEntity
8
profil
6
ByLayer
62
256
370
-1
100
AcDbLine
10
89.0471266559
20
6.01716254849
11
85.2732434002
21
6.01716254849
0
LINE
5
10F
100
AcDbEntity
8
profil
6
ByLayer
62
256
370
-1
100
AcDbLine
10
83.2865093938
20
2.41716254849
11
79.5126261381
21
2.41716254849
0
LINE
5
110
100
AcDbEntity
8
profil
6
ByLayer
62
256
370
-1
100
AcDbLine
10
81.0462693473
20
1.01716254849
11
77.2723860917
21
1.01716254849
0
LINE
5
111
100
AcDbEntity
8
profil
6
ByLayer
62
256
370
-1
100
AcDbLine
10
47.9774949352
20
153.2
11
47.9774949352
21
156.017162548
0
LINE
5
112
100
AcDbEntity
8
profil
6
ByLayer
62
256
370
-1
100
AcDbLine
10
51.0310278532
20
156.017162548
11
47.9774949352
21
156.017162548
0
LINE
5
113
100
AcDbEntity
8
profil
6
ByLayer
62
256
370
-1
100
AcDbLine
10
51.0310278532
20
156.017162548
11
54.6315680287
21
152.417162548
0
LINE
5
114
100
AcDbEntity
8
profil
6
ByLayer
62
256
370
-1
100
AcDbLine
10
51.802928695
20
152.417162548
11
53.2031387633
21
151.017162548
0
LINE
5
115
100
AcDbEntity
8
profil
6
ByLayer
62
256
370
-1
100
AcDbLine
10
56.031778097
20
151.017162548
11
59.6323182726
21
147.417162548
0
LINE
5
116
100
AcDbEntity
8
profil
6
ByLayer
62
256
370
-1
100
AcDbLine
10
61.0325283409
20
146.017162548
11
64.6330685164
21
142.417162548
0
LINE
5
117
100
AcDbEntity
8
profil
6
ByLayer
62
256
370
-1
100
AcDbLine
10
56.8036789389
20
147.417162548
11
58.2038890071
21
146.017162548
0
LINE
5
118
100
AcDbEntity
8
profil
6
ByLayer
62
256
370
-1
100
AcDbLine
10
61.8044291827
20
142.417162548
11
63.204639251
21
141.017162548
0
LINE
5
119
100
AcDbEntity
8
profil
6
ByLayer
62
256
370
-1
100
AcDbLine
10
66.0332785847
20
141.017162548
11
69.6338187603
21
137.417162548
0
LINE
5
11A
100
AcDbEntity
8
profil
6
ByLayer
62
256
370
-1
100
AcDbLine
10
66.8051794266
20
137.417162548
11
68.2053894948
21
136.017162548
0
LINE
5
11B
100
AcDbEntity
8
profil
6
ByLayer
62
256
370
-1
100
AcDbLine
10
71.0340288285
20
136.017162548
11
74.6345690041
21
132.417162548
0
LINE
5
11C
100
AcDbEntity
8
profil
6
ByLayer
62
256
370
-1
100
AcDbLine
10
76.0347790724
20
131.017162548
11
79.6353192479
21
127.417162548
0
LINE
5
11D
100
AcDbEntity
8
profil
6
ByLayer
62
256
370
-1
100
AcDbLine
10
81.0355293162
20
126.017162548
11
84.6360694918
21
122.417162548
0
LINE
5
11E
100
AcDbEntity
8
profil
6
ByLayer
62
256
370
-1
100
AcDbLine
10
86.0362795601
20
121.017162548
11
89.6368197356
21
117.417162548
0
LINE
5
11F
100
AcDbEntity
8
profil
6
ByLayer
62
256
370
-1
100
AcDbLine
10
91.0370298039
20
116.017162548
11
94.6375699795
21
112.417162548
0
LINE
5
120
100
AcDbEntity
8
profil
6
ByLayer
62
256
370
-1
100
AcDbLine
10
96.0377800477
20
111.017162548
11
99.6383202233
21
107.417162548
0
LINE
5
121
100
AcDbEntity
8
profil
6
ByLayer
62
256
370
-1
100
AcDbLine
10
101.038530292
20
106.017162548
11
104.639070467
21
102.417162548
0
LINE
5
122
100
AcDbEntity
8
profil
6
ByLayer
62
256
370
-1
100
AcDbLine
10
106.039280535
20
101.017162548
11
109.639820711
21
97.4171625485
0
LINE
5
123
100
AcDbEntity
8
profil
6
ByLayer
62
256
370
-1
100
AcDbLine
10
111.040030779
20
96.0171625485
11
114.640570955
21
92.4171625485
0
LINE
5
124
100
AcDbEntity
8
profil
6
ByLayer
62
256
370
-1
100
AcDbLine
10
116.040781023
20
91.0171625485
11
119.641321199
21
87.4171625485
0
LINE
5
125
100
AcDbEntity
8
profil
6
ByLayer
62
256
370
-1
100
AcDbLine
10
121.041531267
20
86.0171625485
11
124.642071442
21
82.4171625485
0
LINE
5
126
100
AcDbEntity
8
profil
6
ByLayer
62
256
370
-1
100
AcDbLine
10
126.042281511
20
81.0171625485
11
129.642821686
21
77.4171625485
0
LINE
5
127
100
AcDbEntity
8
profil
6
ByLayer
62
256
370
-1
100
AcDbLine
10
131.043031755
20
76.0171625485
11
134.64357193
21
72.4171625485
0
LINE
5
128
100
AcDbEntity
8
profil
6
ByLayer
62
256
370
-1
100
AcDbLine
10
136.043781998
20
71.0171625485
11
139.644322174
21
67.4171625485
0
LINE
5
129
100
AcDbEntity
8
profil
6
ByLayer
62
256
370
-1
100
AcDbLine
10
141.044532242
20
66.0171625485
11
144.645072418
21
62.4171625485
0
LINE
5
12A
100
AcDbEntity
8
profil
6
ByLayer
62
256
370
-1
100
AcDbLine
10
146.045282486
20
61.0171625485
11
149.645822662
21
57.4171625485
0
LINE
5
12B
100
AcDbEntity
8
profil
6
ByLayer
62
256
370
-1
100
AcDbLine
10
151.04603273
20
56.0171625485
11
154.646572906
21
52.4171625485
0
LINE
5
12C
100
AcDbEntity
8
profil
6
ByLayer
62
256
370
-1
100
AcDbLine
10
156.046782974
20
51.0171625485
11
157.973010516
21
49.0912239908
0
LINE
5
12D
100
AcDbEntity
8
profil
6
ByLayer
62
256
370
-1
100
AcDbLine
10
151.817933572
20
52.4171625485
11
153.21814364
21
51.0171625485
0
LINE
5
12E
100
AcDbEntity
8
profil
6
ByLayer
62
256
370
-1
100
AcDbLine
10
148.217393396
20
56.0171625485
11
146.817183328
21
57.4171625485
0
LINE
5
12F
100
AcDbEntity
8
profil
6
ByLayer
62
256
370
-1
100
AcDbLine
10
143.216643152
20
61.0171625485
11
141.816433084
21
62.4171625485
0
LINE
5
130
100
AcDbEntity
8
profil
6
ByLayer
62
256
370
-1
100
AcDbLine
10
138.215892909
20
66.0171625485
11
136.81568284
21
67.4171625485
0
LINE
5
131
100
AcDbEntity
8
profil
6
ByLayer
62
256
370
-1
100
AcDbLine
10
133.215142665
20
71.0171625485
11
131.814932596
21
72.4171625485
0
LINE
5
132
100
AcDbEntity
8
profil
6
ByLayer
62
256
370
-1
100
AcDbLine
10
126.814182353
20
77.4171625485
11
128.214392421
21
76.0171625485
0
LINE
5
133
100
AcDbEntity
8
profil
6
ByLayer
62
256
370
-1
100
AcDbLine
10
123.213642177
20
81.0171625485
11
121.813432109
21
82.4171625485
0
LINE
5
134
100
AcDbEntity
8
profil
6
ByLayer
62
256
370
-1
100
AcDbLine
10
118.212891933
20
86.0171625485
11
116.812681865
21
87.4171625485
0
LINE
5
135
100
AcDbEntity
8
profil
6
ByLayer
62
256
370
-1
100
AcDbLine
10
113.212141689
20
91.0171625485
11
111.811931621
21
92.4171625485
0
LINE
5
136
100
AcDbEntity
8
profil
6
ByLayer
62
256
370
-1
100
AcDbLine
10
108.211391446
20
96.0171625485
11
106.811181377
21
97.4171625485
0
LINE
5
137
100
AcDbEntity
8
profil
6
ByLayer
62
256
370
-1
100
AcDbLine
10
103.210641202
20
101.017162548
11
101.810431133
21
102.417162548
0
LINE
5
138
100
AcDbEntity
8
profil
6
ByLayer
62
256
370
-1
100
AcDbLine
10
98.2098909579
20
106.017162548
11
96.8096808896
21
107.417162548
0
LINE
5
139
100
AcDbEntity
8
profil
6
ByLayer
62
256
370
-1
100
AcDbLine
10
93.209140714
20
111.017162548
11
91.8089306457
21
112.417162548
0
LINE
5
13A
100
AcDbEntity
8
profil
6
ByLayer
62
256
370
-1
100
AcDbLine
10
88.2083904702
20
116.017162548
11
86.8081804019
21
117.417162548
0
LINE
5
13B
100
AcDbEntity
8
profil
6
ByLayer
62
256
370
-1
100
AcDbLine
10
83.2076402263
20
121.017162548
11
81.8074301581
21
122.417162548
0
LINE
5
13C
100
AcDbEntity
8
profil
6
ByLayer
62
256
370
-1
100
AcDbLine
10
78.2068899825
20
126.017162548
11
76.8066799142
21
127.417162548
0
LINE
5
13D
100
AcDbEntity
8
profil
6
ByLayer
62
256
370
-1
100
AcDbLine
10
73.2061397387
20
131.017162548
11
71.8059296704
21
132.417162548
0
LINE
5
13E
100
AcDbEntity
8
profil
6
ByLayer
62
256
370
-1
100
AcDbLine
10
157.973010516
20
49.0912239908
11
155.294225171
21
47.4171625485
0
LINE
5
13F
100
AcDbEntity
8
profil
6
ByLayer
62
256
370
-1
100
AcDbLine
10
153.053985125
20
46.0171625485
11
147.293367862
21
42.4171625485
0
LINE
5
140
100
AcDbEntity
8
profil
6
ByLayer
62
256
370
-1
100
AcDbLine
10
145.053127816
20
41.0171625485
11
139.292510554
21
37.4171625485
0
LINE
5
141
100
AcDbEntity
8
profil
6
ByLayer
62
256
370
-1
100
AcDbLine
10
137.052270507
20
36.0171625485
11
131.291653245
21
32.4171625485
0
LINE
5
142
100
AcDbEntity
8
profil
6
ByLayer
62
256
370
-1
100
AcDbLine
10
129.051413199
20
31.0171625485
11
123.290795937
21
27.4171625485
0
LINE
5
143
100
AcDbEntity
8
profil
6
ByLayer
62
256
370
-1
100
AcDbLine
10
121.05055589
20
26.0171625485
11
115.289938628
21
22.4171625485
0
LINE
5
144
100
AcDbEntity
8
profil
6
ByLayer
62
256
370
-1
100
AcDbLine
10
113.049698582
20
21.0171625485
11
107.28908132
21
17.4171625485
0
LINE
5
145
100
AcDbEntity
8
profil
6
ByLayer
62
256
370
-1
100
AcDbLine
10
105.048841273
20
16.0171625485
11
99.2882240109
21
12.4171625485
0
LINE
5
146
100
AcDbEntity
8
profil
6
ByLayer
62
256
370
-1
100
AcDbLine
10
97.0479839645
20
11.0171625485
11
91.2873667023
21
7.41716254849
0
LINE
5
147
100
AcDbEntity
8
profil
6
ByLayer
62
256
370
-1
100
AcDbLine
10
89.0471266559
20
6.01716254849
11
83.2865093938
21
2.41716254849
0
LINE
5
148
100
AcDbEntity
8
profil
6
ByLayer
62
256
370
-1
100
AcDbLine
10
81.0462693473
20
1.01716254849
11
69.9839267261
21
-3.53763644645
0
LINE
5
149
100
AcDbEntity
8
profil
6
ByLayer
62
256
370
-1
100
AcDbLine
10
77.2723860917
20
1.01716254849
11
79.5126261381
21
2.41716254849
0
LINE
5
14A
100
AcDbEntity
8
profil
6
ByLayer
62
256
370
-1
100
AcDbLine
10
85.2732434002
20
6.01716254849
11
87.5134834466
21
7.41716254849
0
LINE
5
14B
100
AcDbEntity
8
profil
6
ByLayer
62
256
370
-1
100
AcDbLine
10
93.2741007088
20
11.0171625485
11
95.5143407552
21
12.4171625485
0
LINE
5
14C
100
AcDbEntity
8
profil
6
ByLayer
62
256
370
-1
100
AcDbLine
10
101.274958017
20
16.0171625485
11
103.515198064
21
17.4171625485
0
LINE
5
14D
100
AcDbEntity
8
profil
6
ByLayer
62
256
370
-1
100
AcDbLine
10
109.275815326
20
21.0171625485
11
111.516055372
21
22.4171625485
0
LINE
5
14E
100
AcDbEntity
8
profil
6
ByLayer
62
256
370
-1
100
AcDbLine
10
117.276672635
20
26.0171625485
11
119.516912681
21
27.4171625485
0
LINE
5
14F
100
AcDbEntity
8
profil
6
ByLayer
62
256
370
-1
100
AcDbLine
10
125.277529943
20
31.0171625485
11
127.51776999
21
32.4171625485
0
LINE
5
150
100
AcDbEntity
8
profil
6
ByLayer
62
256
370
-1
100
AcDbLine
10
133.278387252
20
36.0171625485
11
135.518627298
21
37.4171625485
0
LINE
5
151
100
AcDbEntity
8
profil
6
ByLayer
62
256
370
-1
100
AcDbLine
10
141.27924456
20
41.0171625485
11
143.519484607
21
42.4171625485
0
LINE
5
152
100
AcDbEntity
8
profil
6
ByLayer
62
256
370
-1
100
AcDbLine
10
149.280101869
20
46.0171625485
11
151.520341915
21
47.4171625485
0
POINT
5
153
100
AcDbEntity
8
cotes
6
ByLayer
62
256
370
-1
100
AcDbPoint
10
192.745967856
20
-8.33996976302
0
DIMENSION
5
154
100
AcDbEntity
8
cotes
6
ByLayer
62
256
370
-1
100
AcDbDimension
2
*D1
10
192.745967856
20
50
30
0
11
190.870967856
21
25
31
0
70
32
71
5
3
Standard
53
0
210
0
220
0
230
1
100
AcDbAlignedDimension
13
69.9839267261
23
0
33
0
14
149.992499812
24
50
34
0
50
90
100
AcDbRotatedDimension
0
DIMENSION
5
155
100
AcDbEntity
8
cotes
6
ByLayer
62
256
370
-1
100
AcDbDimension
2
*D2
10
192.745967856
20
151.6
30
0
11
190.870967856
21
100.8
31
0
70
32
71
5
3
Standard
53
0
210
0
220
0
230
1
100
AcDbAlignedDimension
13
149.992499812
23
50
33
0
14
49.9774949352
24
151.6
34
0
50
90
100
AcDbRotatedDimension
0
ARC
5
156
100
AcDbEntity
8
ossature2
6
ByLayer
62
256
370
-1
100
AcDbCircle
10
0
20
0
40
10
100
AcDbArc
50
0
51
180
0
LINE
5
157
100
AcDbEntity
8
ossature2
6
ByLayer
62
256
370
-1
100
AcDbLine
10
-10
20
1.22464679915e-15
11
-10
21
-20.3205080757
0
LINE
5
158
100
AcDbEntity
8
ossature2
6
ByLayer
62
256
370
-1
100
AcDbLine
10
-22.9396228748
20
42.7319985767
11
-5.66713588574
21
12.8017018733
0
LINE
5
159
100
AcDbEntity
8
ossature2
6
ByLayer
62
256
370
-1
100
AcDbLine
10
-25.5376899516
20
41.2319826341
11
-8.26445451626
21
11.3003889999
0
LINE
5
15A
100
AcDbEntity
8
ossature2
6
ByLayer
62
256
370
-1
100
AcDbLine
10
22.9393611814
20
42.7321390594
11
5.66066734786
21
12.8045634512
0
LINE
5
15B
100
AcDbEntity
8
ossature2
6
ByLayer
62
256
370
-1
100
AcDbLine
10
25.5374373928
20
41.2321390594
11
8.25874355921
21
11.3045634512
0
LINE
5
15C
100
AcDbEntity
8
ossature2
6
ByLayer
62
256
370
-1
100
AcDbLine
10
13.9194109071
20
1.5
11
48.4767985742
21
1.5
0
LINE
5
15D
100
AcDbEntity
8
ossature2
6
ByLayer
62
256
370
-1
100
AcDbLine
10
14
20
-1.5
11
48.4767985742
21
-1.5
0
LINE
5
15E
100
AcDbEntity
8
ossature2
6
ByLayer
62
256
370
-1
100
AcDbLine
10
-22.9393611814
20
-42.7321390594
11
-10
21
-20.3205080757
0
LINE
5
15F
100
AcDbEntity
8
ossature2
6
ByLayer
62
256
370
-1
100
AcDbLine
10
-25.5374373928
20
-41.2321390594
11
-14
21
-21.248711306
0
LINE
5
160
100
AcDbEntity
8
ossature2
6
ByLayer
62
256
370
-1
100
AcDbLine
10
-48.4767985742
20
1.5
11
-13.9194109071
21
1.5
0
LINE
5
161
100
AcDbEntity
8
ossature2
6
ByLayer
62
256
370
-1
100
AcDbLine
10
10
20
-20.3205080757
11
22.9393611814
21
-42.7321390594
0
LINE
5
162
100
AcDbEntity
8
ossature2
6
ByLayer
62
256
370
-1
100
AcDbLine
10
10
20
0
11
10
21
-20.3205080757
0
LINE
5
163
100
AcDbEntity
8
ossature2
6
ByLayer
62
256
370
-1
100
AcDbLine
10
14
20
-21.248711306
11
25.5374373928
21
-41.2321390594
0
LINE
5
164
100
AcDbEntity
8
ossature2
6
ByLayer
62
256
370
-1
100
AcDbLine
10
14
20
-1.5
11
14
21
-21.248711306
0
ARC
5
165
100
AcDbEntity
8
ossature2
6
ByLayer
62
256
370
-1
100
AcDbCircle
10
0
20
0
40
48.5
100
AcDbArc
50
1.77231704057
51
58.2276829594
0
ARC
5
166
100
AcDbEntity
8
ossature2
6
ByLayer
62
256
370
-1
100
AcDbCircle
10
0
20
0
40
48.5
100
AcDbArc
50
61.7723170406
51
118.228033842
0
ARC
5
167
100
AcDbEntity
8
ossature2
6
ByLayer
62
256
370
-1
100
AcDbCircle
10
0
20
0
40
48.5
100
AcDbArc
50
121.772667995
51
178.227682959
0
ARC
5
168
100
AcDbEntity
8
ossature2
6
ByLayer
62
256
370
-1
100
AcDbCircle
10
0
20
0
40
48.5
100
AcDbArc
50
181.772317041
51
238.227682959
0
ARC
5
169
100
AcDbEntity
8
ossature2
6
ByLayer
62
256
370
-1
100
AcDbCircle
10
0
20
0
40
48.5
100
AcDbArc
50
241.772317041
51
298.227682959
0
ARC
5
16A
100
AcDbEntity
8
ossature2
6
ByLayer
62
256
370
-1
100
AcDbCircle
10
0
20
0
40
48.5
100
AcDbArc
50
301.772317041
51
358.227682959
0
LINE
5
16B
100
AcDbEntity
8
ossature2
6
ByLayer
62
256
370
-1
100
AcDbLine
10
-14
20
-1.5
11
-14
21
-21.248711306
0
LINE
5
16C
100
AcDbEntity
8
ossature2
6
ByLayer
62
256
370
-1
100
AcDbLine
10
-48.4767985742
20
-1.5
11
-14
21
-1.5
0
ARC
5
16D
100
AcDbEntity
8
ossature2
6
ByLayer
62
256
370
-1
100
AcDbCircle
10
0
20
0
40
14
100
AcDbArc
50
126.179590451
51
173.849360172
0
ARC
5
16E
100
AcDbEntity
8
ossature2
6
ByLayer
62
256
370
-1
100
AcDbCircle
10
0
20
0
40
14
100
AcDbArc
50
66.1506398279
51
113.878307768
0
ARC
5
16F
100
AcDbEntity
8
ossature2
6
ByLayer
62
256
370
-1
100
AcDbCircle
10
0
20
0
40
14
100
AcDbArc
50
6.15063982794
51
53.8493601721
0
DIMENSION
5
170
100
AcDbEntity
8
cotes
6
ByLayer
62
256
370
-1
100
AcDbDimension
2
*D3
10
-33.6929252574
20
61.3578584014
30
0
11
-35.9294633631
21
62.2316560335
31
0
70
33
71
5
3
Standard
53
0
210
0
220
0
230
1
100
AcDbAlignedDimension
13
-37.041170107
23
61.1571885971
33
0
14
-34.4430938956
24
62.6571885971
34
0
0
DIMENSION
5
171
100
AcDbEntity
8
cotes
6
ByLayer
62
256
370
-1
100
AcDbDimension
2
*D4
10
69.9839267261
20
-1.6
30
0
11
68.1089267261
21
2.2962127484e-16
31
0
70
32
71
5
3
Standard
53
0
210
0
220
0
230
1
100
AcDbAlignedDimension
13
67.9839267261
23
1.6
33
0
14
67.9839267261
24
-1.6
34
0
50
90
100
AcDbRotatedDimension
0
DIMENSION
5
172
100
AcDbEntity
8
cotes
6
ByLayer
62
256
370
-1
100
AcDbDimension
2
*D5
10
49.9774949352
20
150
30
0
11
48.1024949352
21
151.6
31
0
70
32
71
5
3
Standard
53
0
210
0
220
0
230
1
100
AcDbAlignedDimension
13
47.9774949352
23
153.2
33
0
14
47.9774949352
24
150
34
0
50
90
100
AcDbRotatedDimension
0
ENDSEC
0
SECTION
2
OBJECTS
0
DICTIONARY
5
C
330
0
100
AcDbDictionary
281
1
3
ACAD_GROUP
350
D
0
DICTIONARY
5
D
330
C
100
AcDbDictionary
281
1
0
ENDSEC
0
EOF
